<!DOCTYPE svg PUBLIC "-//W3C//DTD SVG 1.1//EN" "http://www.w3.org/Graphics/SVG/1.1/DTD/svg11.dtd">
<!-- Uploaded to: SVG Repo, www.svgrepo.com, Transformed by: SVG Repo Mixer Tools -->
<svg fill="#002244" width="256px" height="256px" viewBox="0 0 32.00 32.00" version="1.1" xmlns="http://www.w3.org/2000/svg" stroke="#002244" transform="rotate(180)" stroke-width="0.00032">
<g id="SVGRepo_bgCarrier" stroke-width="0"/>
<g id="SVGRepo_tracerCarrier" stroke-linecap="round" stroke-linejoin="round"/>
<g id="SVGRepo_iconCarrier"> <title>triangle</title> <path d="M30.65 27.75l-14.001-24.249c-0.142-0.211-0.379-0.349-0.649-0.349s-0.508 0.137-0.648 0.346l-0.002 0.003-14 24.249c-0.063 0.108-0.1 0.237-0.1 0.375 0 0.414 0.336 0.75 0.75 0.75h28c0 0 0.001 0 0.001 0 0.414 0 0.75-0.336 0.75-0.75 0-0.138-0.037-0.267-0.102-0.379l0.002 0.004zM3.299 27.375l12.701-21.999 12.701 21.999z"/> </g>
</svg>